<svg xmlns="http://www.w3.org/2000/svg" viewBox="0 0 64 64" role="img" aria-label="Gestión en Calma">
  <defs>
    <linearGradient id="g" x1="0" x2="1" y1="0" y2="1">
      <stop offset="0%" stop-color="#f4ede1" />
      <stop offset="100%" stop-color="#d8decf" />
    </linearGradient>
  </defs>
  <rect width="64" height="64" rx="18" fill="url(#g)" />
  <path d="M18 34c0-9 6-16 16-16 5 0 9 2 12 5l-6 6c-2-2-4-3-7-3-5 0-8 3-8 8s3 8 8 8c3 0 6-1 8-4h-7v-8h18c0 14-8 24-20 24-9 0-14-5-14-20Z" fill="#4d5e45" />
</svg>
